<svg width="26" height="26" viewBox="0 0 26 26" fill="none" xmlns="http://www.w3.org/2000/svg">
<g clip-path="url(#clip0_79_473)">
<path d="M8.35704 0.928558H2.78561C1.75994 0.928558 0.928467 1.76003 0.928467 2.7857V8.35713C0.928467 9.3828 1.75994 10.2143 2.78561 10.2143H8.35704C9.38271 10.2143 10.2142 9.3828 10.2142 8.35713V2.7857C10.2142 1.76003 9.38271 0.928558 8.35704 0.928558Z" stroke="#747474" stroke-linecap="round" stroke-linejoin="round"/>
<path d="M23.2142 0.928558H17.6428C16.6171 0.928558 15.7856 1.76003 15.7856 2.7857V8.35713C15.7856 9.3828 16.6171 10.2143 17.6428 10.2143H23.2142C24.2399 10.2143 25.0714 9.3828 25.0714 8.35713V2.7857C25.0714 1.76003 24.2399 0.928558 23.2142 0.928558Z" stroke="#747474" stroke-linecap="round" stroke-linejoin="round"/>
<path d="M8.35704 15.7857H2.78561C1.75994 15.7857 0.928467 16.6172 0.928467 17.6428V23.2143C0.928467 24.2399 1.75994 25.0714 2.78561 25.0714H8.35704C9.38271 25.0714 10.2142 24.2399 10.2142 23.2143V17.6428C10.2142 16.6172 9.38271 15.7857 8.35704 15.7857Z" stroke="#747474" stroke-linecap="round" stroke-linejoin="round"/>
<path d="M23.2142 15.7857H17.6428C16.6171 15.7857 15.7856 16.6172 15.7856 17.6428V23.2143C15.7856 24.2399 16.6171 25.0714 17.6428 25.0714H23.2142C24.2399 25.0714 25.0714 24.2399 25.0714 23.2143V17.6428C25.0714 16.6172 24.2399 15.7857 23.2142 15.7857Z" stroke="#747474" stroke-linecap="round" stroke-linejoin="round"/>
</g>
<defs>
<clipPath id="clip0_79_473">
<rect width="26" height="26" fill="white"/>
</clipPath>
</defs>
</svg>
