<svg width="26" height="26" viewBox="0 0 26 26" fill="none" xmlns="http://www.w3.org/2000/svg">
<path d="M21.3571 9.2857C21.3571 13.91 13 25.0714 13 25.0714C13 25.0714 4.64282 13.91 4.64282 9.2857C4.64282 7.06925 5.5233 4.94358 7.09057 3.37631C8.65784 1.80904 10.7835 0.928558 13 0.928558C15.2164 0.928558 17.3421 1.80904 18.9094 3.37631C20.4766 4.94358 21.3571 7.06925 21.3571 9.2857V9.2857Z" stroke="#747474" stroke-linecap="round" stroke-linejoin="round"/>
<path d="M13.0001 12.0714C14.5386 12.0714 15.7858 10.8242 15.7858 9.28571C15.7858 7.74721 14.5386 6.5 13.0001 6.5C11.4616 6.5 10.2144 7.74721 10.2144 9.28571C10.2144 10.8242 11.4616 12.0714 13.0001 12.0714Z" stroke="#747474" stroke-linecap="round" stroke-linejoin="round"/>
</svg>
