<svg width="24" height="24" viewBox="0 0 24 24" fill="none" xmlns="http://www.w3.org/2000/svg">
<g clip-path="url(#clip0_79_387)">
<path d="M17.5002 0.917175C16.3742 0.93469 15.2727 1.24903 14.307 1.82845C13.3413 2.40786 12.5456 3.23184 12.0002 4.21718C11.4548 3.23184 10.6591 2.40786 9.69344 1.82845C8.72774 1.24903 7.62625 0.93469 6.5002 0.917175C4.70514 0.995166 3.01391 1.78043 1.79599 3.10141C0.578062 4.42239 -0.0675481 6.1717 0.000202431 7.96718C0.000202431 14.7422 10.9562 22.5672 11.4222 22.8992L12.0002 23.3082L12.5782 22.8992C13.0442 22.5692 24.0002 14.7422 24.0002 7.96718C24.068 6.1717 23.4223 4.42239 22.2044 3.10141C20.9865 1.78043 19.2953 0.995166 17.5002 0.917175Z" fill="#FF5656"/>
</g>
<defs>
<clipPath id="clip0_79_387">
<rect width="24" height="24" fill="white"/>
</clipPath>
</defs>
</svg>
